<svg width="1280" height="720" xmlns="http://www.w3.org/2000/svg" xmlns:xlink="http://www.w3.org/1999/xlink" overflow="hidden"><defs><clipPath id="clip0"><rect x="0" y="0" width="1280" height="720"/></clipPath></defs><g clip-path="url(#clip0)"><rect x="0" y="0" width="1280" height="720" fill="#FF66FF" fill-opacity="0"/><path d="M521.247 257.112C531.045 200.673 593.707 160.996 616.635 180.091 639.562 199.186 648.78 276.601 628.453 330.143 608.126 383.686 527.627 490.236 494.672 501.346 461.717 512.456 482.893 474.211 485.255 456.224 487.618 438.237 531.11 384.302 526.676 365.015 522.243 345.728 511.449 313.551 521.247 257.112Z" stroke="#000000" stroke-width="1.33333" stroke-miterlimit="8" fill="#CC3300" fill-rule="evenodd"/><path d="M556.5 198.5C557.719 203.402 558.938 208.303 562.125 209.832 565.313 211.361 571.875 205.875 575.625 207.674 579.375 209.472 579.375 219.096 584.625 220.625 589.875 222.154 601.5 215.408 607.125 216.847 612.75 218.286 613.313 228.089 618.375 229.259 623.437 230.428 630.469 227.145 637.5 223.862" stroke="#000000" stroke-width="1.33333" stroke-miterlimit="8" fill="none" fill-rule="evenodd"/><path d="M534.5 264.5C535.521 269.567 536.542 274.633 540.068 275.7 543.594 276.767 550.553 269.922 555.657 270.9 560.76 271.878 565.771 281.122 570.689 281.567 575.607 282.011 578.948 272.945 585.165 273.567 591.382 274.189 601.775 285.389 607.992 285.3 614.209 285.211 617.55 272.5 622.468 273.033 627.386 273.567 632.304 287.522 637.5 288.5" stroke="#000000" stroke-width="1.33333" stroke-miterlimit="8" fill="none" fill-rule="evenodd"/><path d="M518.5 321.5C525.931 326.061 533.363 330.623 540.373 330.974 547.384 331.325 553.366 322.202 560.564 323.605 567.761 325.009 575.519 338.693 583.558 339.395 591.597 340.097 601.973 327.465 608.796 327.816 615.62 328.167 620.06 334.833 624.5 341.5" stroke="#000000" stroke-width="1.33333" stroke-miterlimit="8" fill="none" fill-rule="evenodd"/><path d="M528.5 371.5C532.171 377.864 535.843 384.227 541.885 385.682 547.926 387.137 557.314 377.591 564.75 380.227 572.186 382.864 579.343 392.182 586.5 401.5" stroke="#000000" stroke-width="1.33333" stroke-miterlimit="8" fill="none" fill-rule="evenodd"/><path d="M512.5 406.5C512.686 414.605 512.871 422.71 516.956 425.307 521.04 427.904 532.829 418.859 537.006 422.083 541.184 425.307 538.77 441.07 542.019 444.652 545.268 448.234 550.884 445.906 556.5 443.577" stroke="#000000" stroke-width="1.33333" stroke-miterlimit="8" fill="none" fill-rule="evenodd"/><path d="M81.5001 452.5C81.5001 360.821 176.416 286.5 293.5 286.5 410.584 286.5 505.5 360.821 505.5 452.5 505.5 544.179 410.584 618.5 293.5 618.5 176.416 618.5 81.5001 544.179 81.5001 452.5Z" stroke="#000000" stroke-width="1.33333" stroke-miterlimit="8" fill="#CC3300" fill-rule="evenodd"/><path d="M449.5 388.5C449.5 367.513 464.051 350.5 482 350.5 499.949 350.5 514.5 367.513 514.5 388.5 514.5 409.487 499.949 426.5 482 426.5 464.051 426.5 449.5 409.487 449.5 388.5Z" stroke="#000000" stroke-width="1.33333" stroke-miterlimit="8" fill="#CC3300" fill-rule="evenodd"/><path d="M43.5976 211.449C42.2198 192.111 55.7253 169.028 65.5967 148.643 42.4694 97.9581 37.3928 16.1456 57.1355 3.19886 76.8783-9.74788 163.182 25.2359 184.053 79.2266 213.385 70.4118 259.64 60.2197 294.049 62.6988 328.458 65.178 364.277 83.3585 390.506 94.1016 443.812 33.7752 502.194 7.05538 522.501 18.0739 542.808 29.0923 552.679 114.761 520.809 150.296 524.475 159.386 535.193 146.715 544.5 211.449 535.193 262.96 544.057 366.81 294.049 360.199 44.0408 353.588 56.2894 261.858 43.5976 211.449Z" stroke="#000000" stroke-width="1.33333" stroke-miterlimit="8" fill="#CC3300" fill-rule="evenodd"/><path d="M143.5 92.5001C132.607 64.5445 121.713 36.5889 70.5001 18.5001" stroke="#000000" stroke-width="1.33333" stroke-miterlimit="8" fill="none" fill-rule="evenodd"/><path d="M416.5 99.5C449.237 69.2517 480.144 35.4216 505.5 35.5002" stroke="#000000" stroke-width="1.33333" stroke-miterlimit="8" fill="none" fill-rule="evenodd"/><path d="M217.5 293.5C217.5 257.049 245.706 227.5 280.5 227.5 315.294 227.5 343.5 257.049 343.5 293.5 343.5 329.951 315.294 359.5 280.5 359.5 245.706 359.5 217.5 329.951 217.5 293.5Z" stroke="#000000" stroke-width="1.33333" stroke-miterlimit="8" fill="#FFFFFF" fill-rule="evenodd"/><path d="M266.5 258C266.5 252.201 274.559 247.5 284.5 247.5 294.441 247.5 302.5 252.201 302.5 258 302.5 263.799 294.441 268.5 284.5 268.5 274.559 268.5 266.5 263.799 266.5 258Z" stroke="#000000" stroke-width="1.33333" stroke-miterlimit="8" fill-rule="evenodd"/><path d="M106.327 318.731C92.6316 301.636 98.7906 273.95 120.083 256.893 141.375 239.836 169.738 239.868 183.433 256.963 197.128 274.059 190.969 301.745 169.677 318.802 148.384 335.859 120.021 335.827 106.327 318.731Z" stroke="#000000" stroke-width="1.33333" stroke-miterlimit="8" fill="#FFFFFF" fill-rule="evenodd"/><path d="M418.952 252.96C435.759 238.126 463.684 242.304 481.324 262.291 498.965 282.278 499.64 310.506 482.833 325.34 466.026 340.173 438.101 335.996 420.46 316.009 402.82 296.021 402.144 267.793 418.952 252.96Z" stroke="#000000" stroke-width="1.33333" stroke-miterlimit="8" fill="#FFFFFF" fill-rule="evenodd"/><path d="M141.62 222.584C139.341 214.179 170.124 196.468 184.604 195.568 199.084 194.667 226.677 202.799 228.5 217.181 228.5 221.657 201.819 207.275 187.339 208.175 172.859 209.076 143.899 230.989 141.62 222.584Z" stroke="#000000" stroke-width="1.33333" stroke-miterlimit="8" fill-rule="evenodd"/><path d="M0.123982 27.0838C-2.2334 18.6788 29.6112 0.968111 44.5905 0.0676292 59.5699-0.832852 88.1141 7.29847 90 21.6806 90 26.1568 62.3989 11.7747 47.4195 12.6752 32.4401 13.5757 2.48137 35.4889 0.123982 27.0838Z" stroke="#000000" stroke-width="1.33333" stroke-miterlimit="8" fill-rule="evenodd" transform="matrix(-1 0 0 1 428.5 194.5)"/><path d="M156.19 135.152C164.017 132.999 159.594 137.279 171.709 133.92 160.089 110.584 198.041 124.992 207.253 130.477 216.465 135.962 228.803 147.959 226.983 166.828 219.815 180.416 191.904 177.342 181.834 174.463 171.764 171.585 140.149 147.684 166.562 149.556 162.288 143.004 151.334 140.238 156.19 135.152Z" stroke="#000000" stroke-width="1.33333" stroke-miterlimit="8" fill="#FFFFFF" fill-rule="evenodd"/><path d="M140.5 91.1048C125.203 86.6057 109.905 82.1067 103.969 83.9063 98.0327 85.7059 106.861 98.3034 104.882 101.903 102.904 105.502 88.4144 97.0263 92.0965 105.502 92.2486 107.601 99.022 111.051 105.796 114.5" stroke="#000000" stroke-width="1.33333" stroke-miterlimit="8" fill="none" fill-rule="evenodd"/><path d="M417.5 97.6331C437.567 90.4071 457.634 83.1811 464.587 82.5284 471.541 81.8757 456.442 92.6914 459.223 93.7171 462.005 94.7428 479.191 86.9106 481.277 88.6821 483.363 90.4536 470.25 106.211 466.376 110.5" stroke="#000000" stroke-width="1.33333" stroke-miterlimit="8" fill="none" fill-rule="evenodd"/><path d="M336.353 173.767C330.249 155.963 421.496 85.4036 394.231 141.237 407.59 134.469 403.668 136.103 416.506 133.156 413.339 142.575 415.645 145.696 402.286 152.465 428.762 145.412 443.961 150.317 396.256 178.646 385.267 182.196 342.456 191.57 336.353 173.767Z" stroke="#000000" stroke-width="1.33333" stroke-miterlimit="8" fill="#FFFFFF" fill-rule="evenodd"/><path d="M21.5001 451.334C21.5001 422.707 44.7068 399.5 73.3339 399.5L1207.67 399.5C1236.29 399.5 1259.5 422.707 1259.5 451.334L1259.5 658.666C1259.5 687.293 1236.29 710.5 1207.67 710.5L73.3339 710.5C44.7068 710.5 21.5001 687.293 21.5001 658.666Z" stroke="#000000" stroke-width="1.33333" stroke-miterlimit="8" fill="#70AD47" fill-rule="evenodd"/><text fill="#FFFFFF" font-family="Calibri,Calibri_MSFontService,sans-serif" font-weight="400" font-size="37" transform="translate(53.4066 545)">Por motivos de la apertura del negocio, al tener una reservación exitosa en su <tspan font-size="37" x="194.953" y="45">historial, se bonificaran puntos de confianza dobles.</tspan><tspan fill="#000000" font-size="117" x="734.29" y="-320">¡Aviso</tspan><tspan fill="#000000" font-size="117" x="1025.78" y="-320">!</tspan></text><path d="M314.5 296C314.5 310.083 299.502 321.5 281 321.5 262.499 321.5 247.5 310.083 247.5 296L260.25 296C260.25 303.042 269.54 308.75 281 308.75 292.46 308.75 301.75 303.042 301.75 296Z" stroke="#000000" stroke-width="1.33333" stroke-miterlimit="8" fill="#FF33CC" fill-rule="evenodd"/></g></svg>